<svg xmlns="http://www.w3.org/2000/svg" width="100" height="100"><path fill="#399ADD" d="M43.021 6.684c2.173.004 4.344-.02 6.516-.045q2.097-.004 4.193-.002l3.794-.01C64.898 7.418 69.376 11.6 74 17c4.774 6.347 7.115 10.707 7.145 18.715l.02 3.479.003 3.744.01 3.855q.008 4.035.007 8.07c0 3.443.014 6.886.031 10.329.014 3.29.013 6.58.014 9.87l.022 3.744-.01 3.48.005 3.058C80.992 88.082 80.493 89.707 79 92c-2.916 1.458-5.555 1.203-8.809 1.281l-2.064.056q-3.282.087-6.564.163c-12.623.296-12.623.296-25.208 1.274-10.973 1.052-10.973 1.052-14.578-1.102-3.088-2.905-2.958-6.137-3.166-10.159l-.182-3.412-.183-3.703-.197-3.833a4793 4793 0 0 1-.406-8.065q-.203-4.088-.416-8.175C16.767 47.552 16.354 38.778 16 30l-.126-2.917c-.095-2.41-.162-4.82-.214-7.231l-.101-3.81C16 13 16 13 17.788 10.649c6.872-5.121 17.03-3.99 25.233-3.965"/><path fill="#F7FBFD" d="M59 10c3.97 1.571 6.197 4.154 9 7.313l2.563 2.863L73 23l2.328 2.68C77 28 77 28 76.75 30.813L76 33c-4.128.993-8.01 1.134-12.25 1.125l-3.766.008C57 34 57 34 56 33c.615-20.615.615-20.615 3-23"/><path fill="#DE4AB0" d="M85 46c3.286.566 4.929 1.368 7 4 .66 3.635.51 7.312.5 11l.086 3.063c.007 2.74-.053 5.248-.586 7.937-2.344 2.25-2.344 2.25-5 3l-3-1c0-4 0-4 2-6l-2-2v-4h2l-1.562-1.812L83 58l1-3 2-1v-2l-2-1z"/><path fill="#F9FCFE" d="M39 40c2.75.25 2.75.25 5 1-.575 3.746-2.136 5.625-4.75 8.313l-2.047 2.175C35 53 35 53 32.383 52.84 29.334 51.765 27.893 50.62 26 48c.25-2.75.25-2.75 1-5l1.75.5c2.517.645 2.517.645 6.25.5l1.938-2.062c.68-.64 1.36-1.28 2.062-1.938"/><path fill="#F1F8FC" d="M39 71c2.25.25 2.25.25 4 1l1 4a292 292 0 0 1-4.187 3.5l-2.356 1.969c-2.808 1.75-4.21 1.98-7.457 1.531-2.375-1.687-2.375-1.687-4-4 .25-2.75.25-2.75 1-5l3.75.75c2.181.35 2.181.35 4.25.25 2.25-1.917 2.25-1.917 4-4"/><path fill="#F3F9FD" d="M38 56c2.188.063 2.188.063 4 1l1 3c-1.258 2.043-1.258 2.043-3.125 4.188l-1.82 2.167C36 68 36 68 33.434 68.344 29.96 67.854 28.386 66.522 26 64c-.312-2.75-.312-2.75 0-5l3.75.75c2.181.35 2.181.35 4.25.25 2.25-1.917 2.25-1.917 4-4"/><path fill="#FF9700" d="M4 61c2.383.996 2.383.996 5.125 2.438l2.758 1.433L14 66v4c-4.683-.46-8.294-.968-12-4v-4z"/><path fill="#2A465C" d="M50 74h22v2c-4.625 1.177-9.079 1.114-13.812 1.063l-2.39-.014Q52.9 77.029 50 77z"/><path fill="#FF9500" d="m6.066 72.902 2.497.035 2.503.028L13 73l-1 5H4c-.562-1.937-.562-1.937-1-4 1-1 1-1 3.066-1.098"/><path fill="#26303A" d="M71 59v2c-4.438 1.112-8.77 1.115-13.312 1.063l-2.245-.014Q52.721 62.029 50 62v-2q3.28-.254 6.563-.5l3.69-.281c3.593-.21 7.15-.256 10.747-.219"/><path fill="#FF9600" d="m10 56 4 1-1 4H9z"/><path fill="#E143B8" d="M86 40h4l1 3-4 2-2-4z"/></svg>