<svg xmlns="http://www.w3.org/2000/svg" width="300" height="256" fill="none" viewBox="0 0 800 600"><style>.B{fill:#000}.C{opacity:.1}.D{fill:#232b41}.E{fill:var(--tblr-illustrations-primary, var(--tblr-primary, #0455a4))}.F{fill:var(--tblr-illustrations-skin, #ffcb9d)}.G{fill:#dadbe0}</style><path fill="#a6a9b3" d="M649.951 544.225c0 3.191-108.207 5.775-241.793 5.775s-241.793-2.584-241.793-5.775 108.206-5.775 241.793-5.775 241.793 2.584 241.793 5.775"/><path fill="#f7f8fc" d="M146 285.714c0 42.25 44.681 72.797 64.286 106.839 20.364 35.107 25.228 88.906 60.334 109.119 34.043 19.757 82.523-2.28 124.772-2.28s90.73 22.037 124.772 2.28c35.107-20.365 39.97-74.012 60.335-109.119 19.756-34.042 64.285-64.741 64.285-106.839s-44.681-72.796-64.285-106.839c-20.213-35.106-25.228-88.905-60.335-109.118-34.042-19.757-82.523 2.28-124.772 2.28S304.663 50 270.62 69.757c-35.106 20.365-39.97 74.012-60.334 109.118C190.529 212.918 146 243.617 146 285.714"/><path d="m528.979 234.499-5.471 28.115h-63.526l5.319-27.052-5.319-1.063-60.486 307.446 5.319 1.064 5.623-28.723h63.526l-5.471 27.659 5.319 1.064 60.486-307.599zm-6.535 33.434-11.094 56.231h-63.526l11.094-56.231zm-86.778 117.781 11.094-56.231h63.526l-11.094 56.231zm62.614 5.471-11.094 56.231H423.66l11.094-56.231zm-86.778 117.782 11.094-56.231h63.526l-11.095 56.231z" class="D"/><path fill="#a7aab3" d="m578.523 458.663-9.119-46.809-34.954-177.508-5.471 1.064 5.319 26.9h-63.374l-5.471-27.964-5.471 1.064 60.486 307.599 5.471-1.064-5.471-27.507h63.374l5.623 28.571 5.471-1.064zM471.988 268.085h63.374l10.942 56.079H482.93zm12.158 61.55h63.374l10.942 56.079h-63.374zm12.158 61.702h63.374l5.775 29.18 5.319 26.747h-63.526zm23.1 117.629-10.942-56.079h63.374l.304 1.52.608 3.192 10.03 51.367z"/><path d="m578.523 458.663-5.927-1.064-.608-3.192-.304-1.519h-25.076a13.63 13.63 0 0 1 6.079-5.624h17.781l-5.319-26.747 3.951-8.511z" class="B" opacity=".22"/><path fill="#fff" d="M266.669 53.799h283.434a16.345 16.345 0 0 1 16.414 16.413V232.37a16.345 16.345 0 0 1-16.414 16.413H266.669a16.345 16.345 0 0 1-16.414-16.413V70.365c0-9.119 7.295-16.565 16.414-16.565z"/><path d="M550.103 50H266.668a20.37 20.37 0 0 0-20.364 20.365v162.158a20.37 20.37 0 0 0 20.364 20.365h283.435a20.37 20.37 0 0 0 20.365-20.365V70.365A20.37 20.37 0 0 0 550.103 50m12.614 182.371c0 4.863-2.887 9.422-7.295 11.398-1.671.76-3.495 1.216-5.319 1.216H266.668a12.583 12.583 0 0 1-12.614-12.614V70.365a12.583 12.583 0 0 1 12.614-12.614h283.435a12.583 12.583 0 0 1 12.614 12.614z" class="D"/><path d="M525.939 252.888h-51.671c-3.04-2.28-5.775-4.864-8.359-7.751-.304-.304-.608-.76-.912-1.064-5.319-5.927-8.815-13.222-10.182-20.973-.152-.608-.152-1.367-.304-1.823.912-3.496 4.103-6.079 7.599-6.231 2.279.152 4.407 1.215 5.775 3.039 2.279 4.559 5.167 8.663 8.662 12.158 4.863 4.863 9.879 7.751 16.718 10.791 10.486 4.863 21.428 8.814 32.674 11.854" class="B" opacity=".19"/><path d="m313.021 117.477-20.517-24.772h-10.79v46.505h12.918v-24.772l20.517 24.772h10.79V92.705h-12.918zm64.134-18.845c-2.432-2.128-5.167-3.951-8.207-5.015a29.76 29.76 0 0 0-20.517 0c-6.079 2.128-11.094 6.839-13.677 12.766-1.368 3.04-1.976 6.231-1.976 9.574s.608 6.535 1.976 9.575q1.823 4.33 5.471 7.751c3.648 3.421 5.167 3.951 8.206 5.015 6.687 2.432 13.83 2.432 20.517 0 3.04-1.064 5.775-2.888 8.207-5.015 2.279-2.128 4.103-4.712 5.471-7.599 1.368-3.04 1.976-6.383 1.976-9.727s-.608-6.534-1.976-9.574-3.192-5.623-5.471-7.751m-6.839 22.797c-.608 1.519-1.52 3.039-2.736 4.255-1.063 1.216-2.431 2.128-3.951 2.735a13.83 13.83 0 0 1-9.878 0c-1.52-.607-2.888-1.519-3.952-2.735-1.216-1.216-2.127-2.584-2.735-4.255a16.87 16.87 0 0 1 0-10.943c.608-1.519 1.519-3.039 2.735-4.255 1.064-1.216 2.584-2.128 3.952-2.736a13.84 13.84 0 0 1 9.878 0c1.52.608 2.888 1.52 3.951 2.736 1.216 1.216 1.976 2.584 2.736 4.255a16.87 16.87 0 0 1 0 10.943m16.109-28.724v10.487h14.286v36.018h13.07v-36.018h14.286V92.705z" class="E"/><path fill="#a7aab3" d="M281.714 201.976h13.222v-15.958h20.365v-10.182h-20.365v-10.03h23.252v-10.335h-36.474zm84.195-40.578q-3.648-3.419-8.207-5.015a30.2 30.2 0 0 0-20.669 0c-6.079 2.28-10.942 6.839-13.526 12.766-1.367 3.039-1.975 6.231-1.975 9.574s.608 6.687 1.975 9.727c2.584 5.927 7.599 10.638 13.678 12.766 6.687 2.431 13.982 2.431 20.517 0 3.039-1.064 5.775-2.888 8.207-5.015q3.419-3.192 5.471-7.751c2.052-4.559 1.975-6.383 1.975-9.727 0-6.535-2.735-12.766-7.446-17.325m-6.991 22.797c-.608 1.519-1.52 3.039-2.736 4.255-1.064 1.216-2.431 2.128-3.951 2.735a13.83 13.83 0 0 1-9.879 0c-1.519-.607-2.887-1.519-3.951-2.735-1.216-1.216-2.128-2.584-2.584-4.255a16.88 16.88 0 0 1 0-10.943c.608-1.519 1.52-3.039 2.584-4.255a13.2 13.2 0 0 1 3.951-2.736 13.84 13.84 0 0 1 9.879 0c1.52.608 2.887 1.52 3.951 2.736 1.216 1.216 2.128 2.584 2.736 4.255a15.1 15.1 0 0 1 0 10.943m51.519-3.192c0 3.951-.759 6.839-2.279 8.511-1.672 1.823-3.952 2.735-6.383 2.583-2.432.152-4.711-.76-6.383-2.583-1.52-1.672-2.28-4.56-2.28-8.511v-25.38h-13.07v25.836c0 6.839 1.976 12.158 5.775 15.957s9.119 5.624 16.11 5.624c6.839 0 12.158-1.824 15.957-5.624s5.775-9.118 5.775-15.957v-25.836h-13.07zm53.192-.76-20.365-24.772h-10.942v46.505h12.918v-24.772l11.094 13.374 9.423 11.398h10.79v-46.505h-12.918zm66.869-13.83c-2.279-3.495-5.319-6.231-9.118-8.054-4.256-1.976-8.815-2.888-13.526-2.888h-22.037v46.505h22.037c4.711.152 9.27-.912 13.526-2.888 3.799-1.824 6.839-4.559 9.118-8.055 2.28-3.647 3.496-8.054 3.344-12.31.152-4.407-1.064-8.662-3.344-12.31m-11.702 19.149c-1.064 1.824-2.583 3.496-4.559 4.408-2.128 1.063-4.559 1.519-6.991 1.519h-8.207v-25.532h8.207c2.432 0 4.863.456 6.991 1.52 1.976.912 3.495 2.432 4.559 4.408a14.53 14.53 0 0 1 0 13.677"/><path d="M476.547 190.577v11.55h-10.79l-9.423-11.398c2.432-2.431 5.624-3.799 8.967-4.103h2.432c3.343.152 6.383 1.52 8.814 3.951" class="B C"/><path d="M177.307 319.757c-3.191 2.888-10.638.608-11.398-2.736-.152-.608-.304-1.823 1.368-3.951-.912.152-6.079 1.216-9.575-1.672-.304-.152-.456-.456-.608-.608-.608-.608-1.367-1.367-1.215-2.127.607-3.192 14.589-6.991 20.364-.456.608.76 1.064 1.52 1.52 2.431 1.52 2.888 1.824 6.991-.456 9.119" class="F"/><path d="M177.307 319.757c-3.191 2.887-10.638.608-11.398-2.736-.152-.608-.304-1.824 1.368-3.951-.912.152-6.079 1.216-9.575-1.672 3.8-1.216 7.751-1.672 11.854-1.672 2.736 0 5.471.304 8.207.76 1.52 3.04 1.824 7.143-.456 9.271" class="B C"/><path d="M292.353 319.757c3.191 2.888 10.638.608 11.398-2.736.152-.608.304-1.823-1.368-3.951.912.152 6.079 1.216 9.574-1.672.304-.152.456-.456.608-.608.608-.608 1.368-1.367 1.216-2.127-.608-3.192-14.59-6.991-20.365-.456-.608.76-1.063 1.52-1.519 2.431-1.52 2.888-1.824 6.991.456 9.119" class="F"/><path d="M292.353 319.757c3.191 2.887 10.638.608 11.398-2.736.152-.608.304-1.824-1.368-3.951.912.152 6.079 1.216 9.574-1.672-3.799-1.216-7.75-1.672-11.854-1.672-2.735 0-5.471.304-8.206.76-1.52 3.04-1.824 7.143.456 9.271" class="B C"/><path d="m270.772 329.027-1.824 20.517-2.583 29.18-.912 10.486-.608 7.751-1.976 23.1h-52.431l-2.28-23.252-.76-7.599c-.304-3.952-.76-7.751-1.216-11.702l-.608-5.775-4.255-42.858z" class="E"/><path d="m210.286 420.061 4.559 109.27h8.814l12.311-84.346 8.51 84.346h6.535l11.854-109.27z" class="G"/><path d="m244.48 529.331-8.511-84.346 3.8-24.924h23.1l-11.854 109.27z" class="B" opacity=".15"/><path d="M217.58 328.268s7.143.303 10.031-3.952l17.781-1.216s5.319 8.967 10.486 9.271-14.285 2.735-14.285 2.735l-24.165-2.735z" class="E"/><path d="M209.83 289.666 215.149 300l1.216 2.128c2.735 4.711 6.079 8.966 9.878 12.918.76.759 1.52 1.519 2.28 2.127 2.887 2.432 16.261 1.064 25.988-4.407s8.966-17.021 2.735-19.301a21 21 0 0 1-6.079-4.255c-2.431-2.28-4.711-4.712-6.839-7.447l-1.975-2.432-10.943-3.343-19.149 8.358c1.672 3.192 1.672 5.776.76 6.383s-2.887-.911-3.191-1.063" class="F"/><path d="M209.83 289.666 215.149 300l1.216 2.128c2.735 4.711 6.079 8.966 9.878 12.918 1.064-.912 1.976-2.128 2.584-3.344.76-1.368 1.064-2.887 1.216-4.407 0-1.672-.152-3.344-.608-4.863-.304-1.064-.456-1.976-.912-3.04a38.14 38.14 0 0 0 22.492-10.03 78 78 0 0 1-6.839-7.295l-1.975-2.432-10.943-3.343-19.149 8.358c1.672 3.192 1.672 5.775.76 6.383s-2.735-1.215-3.039-1.367" class="B C"/><path d="M251.319 273.252c1.672-1.672 2.736-3.951 2.736-6.687a9.21 9.21 0 0 0-9.271-9.27c-4.103 0-7.599 2.735-8.814 6.383-1.216-3.8-4.712-6.383-8.815-6.383-4.711 0-8.663 3.647-9.119 8.206-1.367-.911-3.039-1.367-4.863-1.367a9.21 9.21 0 0 0-9.27 9.27c0 1.976.608 3.799 1.671 5.319-2.735 1.064-4.863 3.648-4.863 6.839 0 4.104 3.344 7.295 7.295 7.295h.152a7.4 7.4 0 0 0 .608 1.672c1.824 3.951 5.015 6.991 9.118 8.662.76.152 1.52.456 2.28.76 1.976 1.064 3.799 2.584 5.015 4.559.456-1.519.456-3.039 0-4.407-1.064-2.127-2.279-4.255-3.647-6.231l-.152-.304c-.152-.304-.304-.456-.456-.912-.456-.911-.912-1.975-1.368-3.039v-.152c6.079.76 23.1 1.976 29.331-9.119a24 24 0 0 0 2.128-5.471c0-.152.152-.304.152-.456.152-.456.152-1.064.152-1.519v-.152c.456-.912.456-2.28 0-3.496" class="D"/><path d="M218.645 383.739c-.76 6.079-4.864 11.094-10.639 13.07-.304-2.432-.456-5.016-.76-7.599-.304-3.952-.76-7.751-1.215-11.702l12.462-37.082c.151.152 2.279 28.419.152 43.313m47.72-5.016-.912 10.487-.608 7.751a15.84 15.84 0 0 1-11.246-13.374c-2.128-14.894 0-43.161 0-43.161z" class="B C"/><path d="m223.204 328.875-12.006 52.432c-.456 1.064-1.064 2.28-1.824 3.191a32.4 32.4 0 0 1-4.559 4.56c-1.216 1.215-2.736 1.975-4.408 2.583-4.407 1.064-10.334-5.015-15.653-13.07-2.736-4.255-5.167-8.662-7.143-13.222-4.103-9.27-3.647-12.462-9.878-32.066a563 563 0 0 0-6.079-17.934l27.659-1.063 1.216 8.358c1.672 12.158 2.887 23.557 3.495 30.851v-4.559c.152-3.343.456-6.535 1.064-9.726 1.064-5.319 3.952-19.453 11.702-21.125 5.623-.912 12.006 3.799 16.414 10.79m87.842-13.374c-1.52 4.104-3.648 10.335-6.079 17.934-6.231 19.604-5.775 22.796-9.879 32.066-2.279 5.168-5.015 10.031-8.055 14.59-5.015 7.447-10.638 12.766-14.741 11.702-1.824-.608-3.496-1.671-5.015-3.039-1.368-1.216-2.736-2.584-3.952-4.104-.608-1.063-1.216-2.127-1.671-3.191l-12.007-52.432c1.064-2.279 5.168-10.638 11.247-11.094 8.054-.456 14.741 13.07 16.565 21.429.608 3.191.912 6.535 1.064 9.726v4.559c.608-7.294 1.824-18.693 3.495-30.851.456-3.495.912-6.383 1.216-8.358z" class="E"/><path d="M570.468 175.836v66.413a11.7 11.7 0 0 1-3.799 2.128l-.304.152c-3.648 1.216-7.447 1.368-11.094.152l.151-.912c4.408-2.128 7.295-6.535 7.295-11.398v-60.943c.304 0 .608.152.912.152 2.736.76 5.015 2.28 6.839 4.256" class="B" opacity=".15"/><use class="G" href="#B"/><use class="B" href="#B" opacity=".35"/><use class="G" href="#C"/><use class="B C" href="#C"/><path d="m654.207 385.258-60.639 11.855-6.079-31.004 6.231-1.215 2.736 13.981c.304 1.368 1.52 2.128 2.887 1.976l3.952-.76c1.368-.304 2.127-1.52 1.823-2.887l-2.735-13.83 3.647-.76 20.213-3.951 3.496-.608 2.735 13.982c.304 1.367 1.52 2.127 2.888 1.823l3.951-.76c1.368-.304 2.128-1.519 1.976-2.735l-2.736-13.982 9.727-1.824 3.951 19.909z" class="G"/><path d="m605.118 377.051-2.735-13.829-.912-4.864c-.304-1.215-1.52-2.127-2.736-1.823l-3.951.76c-1.216.304-2.128 1.519-1.824 2.735l.912 4.863 2.736 13.982c.304 1.368 1.519 2.128 2.887 1.976l3.952-.76c1.063-.456 1.823-1.672 1.671-3.04m35.867-6.99-2.736-13.982-.912-4.863c-.304-1.216-1.52-2.128-2.735-1.824l-3.952.76c-1.216.304-2.127 1.52-1.823 2.887l.911 4.864 2.736 13.981c.304 1.368 1.52 2.128 2.887 1.824l3.952-.76c1.216-.304 1.976-1.52 1.672-2.887" class="E"/><path d="M574.267 186.778c.608 2.736 1.368 6.687 2.128 11.702.152 1.064.304 2.128.304 2.432a60.5 60.5 0 0 1 0 16.565c-.152 1.064-.304 2.128-.608 3.192-.608 2.887-7.295 7.446-15.198 10.334-2.735.912-5.623 1.672-8.51 2.128-8.967 1.215-15.046-4.864-15.198-10.183 0-1.368.304-2.583 1.064-3.647a20.4 20.4 0 0 0 2.28-7.295c.608-3.343.912-6.839.912-10.182.152-1.976 0-3.192 0-3.192l6.839-9.574 20.668-5.016c.608 3.496 2.128 5.776 3.192 5.624s1.975-2.432 2.127-2.888" class="F"/><path d="M574.267 186.778c.608 2.735 1.368 6.687 2.128 11.702.152 1.064.304 2.128.304 2.432a60.5 60.5 0 0 1 0 16.565c-1.368-.152-2.888-.456-4.103-1.064-1.368-.76-2.736-1.672-3.8-2.887s-1.975-2.736-2.583-4.256c-.456-.912-.912-1.975-1.216-3.039-3.648 2.279-7.599 3.951-11.854 4.863-4.104.912-8.359 1.216-12.614.76.608-3.344.912-6.839.912-10.182.152-1.976 0-3.192 0-3.192l6.839-9.574 20.668-5.016c.608 3.496 2.128 5.775 3.192 5.623s1.975-2.279 2.127-2.735" class="B C"/><path d="M577.915 190.577c.912 4.256.304 8.815-1.976 12.614-.456.608-.912 1.368-1.368 2.128a17 17 0 0 0-1.367 6.687q-1.824-1.368-2.736-3.647c-.456-2.432-.76-4.864-.76-7.295v-.304c0-.152 0-.456-.152-.912-.152-1.064-.456-2.28-.76-3.344v-.151c-4.407 4.407-17.477 15.805-29.331 10.638-1.824-.76-3.647-1.824-5.167-3.192-.152-.152-.304-.152-.456-.304-.304-.304-.76-.608-1.064-1.063l-.152-.152c-.912-.912-1.52-2.128-2.128-3.192l-.152-.456c-.911-2.583-.455-5.623 1.216-7.903 2.128-3.039 4.863-5.775 8.207-7.75 7.903-5.623 21.125-9.727 30.547-3.648 2.432 1.672 4.407 3.8 5.775 6.231q1.368 2.508 1.824 5.015" class="D"/><path d="M603.903 337.386c-.304 1.064-.456 2.128-.304 3.191 0 3.952 2.127 6.991 5.319 7.599 4.103.76 8.358-2.887 9.726-8.207.152-.607.304-1.215.304-1.671.456-4.56-1.671-8.359-5.167-8.967-4.255-.76-8.511 2.888-9.878 8.055" class="F"/><path d="M603.903 337.386c-.304 1.064-.456 2.128-.304 3.191l1.216.152c5.319.152 7.598-1.671 13.373-2.431h.76c.456-4.56-1.671-8.359-5.167-8.967-4.255-.76-8.511 2.888-9.878 8.055" class="B C"/><path d="M466.973 191.641c-.456-1.064-1.064-1.975-1.672-2.735-2.432-3.04-5.927-4.256-8.815-2.736-3.647 1.976-4.711 7.447-2.583 12.462.304.456.608 1.064.912 1.52 2.431 3.799 6.534 5.623 9.726 3.799 3.495-1.823 4.559-7.447 2.432-12.31" class="F"/><path d="M466.973 191.641c-.456-1.064-1.064-1.975-1.672-2.735-.304.304-.608.456-.912.76-4.255 3.191-4.863 6.079-8.967 10.182a2.1 2.1 0 0 1-.608.456c2.432 3.799 6.535 5.623 9.727 3.799 3.495-1.975 4.559-7.598 2.432-12.462" class="B C"/><path d="m584.45 326.292-1.52 8.815-17.325 98.48-5.775 2.279c-2.28-9.118-4.255-18.541-6.079-28.723-3.496-20.365-5.623-40.881-6.231-61.398l-14.438-3.648-13.222-3.191c-.152 5.471-.304 11.398 0 17.629.152 5.775.608 11.246 1.216 16.413l-8.055.912-20.212-62.614 16.869 1.368 21.125 1.976z" class="E"/><path d="M629.587 320.516c-.304 6.991-1.52 13.07-2.736 18.238l-7.903-1.824-13.525-3.192-1.064-.304-1.216-.304-2.128-.455-2.431-.608c-1.368-.304-2.888-.76-4.56-1.064a61.1 61.1 0 0 0 8.359-24.164s1.824-14.438-2.736-26.748l-.303-.912a39.5 39.5 0 0 0-6.991-10.942l-.76-.76c-.304 5.319-.76 10.03-1.064 14.286-.912 10.334-2.28 19.149-3.04 24.924a563 563 0 0 1-4.559 28.267l-52.28-20.517-1.367-16.261c-.152-2.584-.76-9.574-1.52-17.021s-1.368-15.35-1.672-20.061c-1.52-.152-2.887-.152-4.559-.456a143 143 0 0 1-16.109-2.735l-3.648-.912a90 90 0 0 1-12.158-4.56c-5.775-2.583-11.246-5.927-16.109-9.726a68 68 0 0 1-9.575-9.119 158 158 0 0 1-9.118-10.942 116 116 0 0 1-6.991-10.638l9.574-8.207c4.711-4.255 6.839-6.231 10.79-8.51 2.128-1.216 4.256-2.28 6.535-3.04 1.216 4.711 2.888 9.423 5.016 13.83 4.559 9.574 12.766 21.58 27.051 28.267 1.216.608 2.432 1.064 3.648 1.52a68 68 0 0 0 7.902 2.28c2.584.456 5.168.912 7.751 1.064 7.599.455 14.438.607 20.365.607 21.429 0 32.523-2.279 32.523-2.279s9.118-1.976 13.678 1.672l.455.303c4.56 3.648 8.815 7.599 12.918 11.855 1.064 1.215 2.128 2.431 3.192 3.799a92.8 92.8 0 0 1 9.574 14.59 102.4 102.4 0 0 1 6.383 15.349c.304.912.608 1.824.912 2.888 1.824 6.231 2.584 11.094 2.736 12.462a85 85 0 0 1 .76 8.206c.152 3.496.152 7.599 0 11.854" class="G"/><path d="M565.149 237.842a19.4 19.4 0 0 1-10.638 5.775c-.152 0-.456 0-.608.152l-10.031-4.559z" class="F"/><path d="M591.593 267.629c-.304 5.319-.76 10.031-1.064 14.286-.912 10.334-2.28 19.149-3.04 24.924-1.519 11.398-3.191 20.973-4.559 28.419l-52.28-20.516c49.848-1.824 60.943-47.113 60.943-47.113m37.994 52.888c-.304 6.991-1.52 13.07-2.736 18.237l-7.903-1.824-13.526-3.191-1.063-.304-1.216-.304-2.128-.456-2.431-.608c3.647-3.8 7.446-8.055 11.094-13.222 8.054-11.094 13.07-21.885 16.413-31.003 1.824 6.231 2.584 11.094 2.736 12.462.304 2.128.608 4.863.76 8.207.152 3.647.152 7.75 0 12.006" class="B C"/><path d="M628.827 300.608c-3.952-3.04-7.143-6.991-9.119-11.702-3.799-8.207-4.103-16.414-.912-19.149 2.128 3.951 4.56 8.814 6.535 14.893s3.04 11.551 3.496 15.958" class="D"/><path d="m582.93 335.258-17.325 98.481-5.775 2.279c-2.28-9.118-4.256-18.541-6.079-28.723-3.496-20.365-5.623-40.882-6.079-61.55l.76-24.164z" class="B C"/><path d="M204.967 389.21c-1.216 1.215-2.736 1.975-4.408 2.583-4.407 1.064-10.334-5.015-15.653-13.07 7.295-3.191 15.805 0 19.149 7.295.304 1.064.76 2.128.912 3.192m81.914-9.119c-5.015 7.447-10.638 12.766-14.741 11.702-1.824-.608-3.496-1.671-5.015-3.039 2.431-7.599 10.638-11.702 18.237-9.271.456.304 1.064.456 1.519.608" class="D"/><path d="M591.441 166.261c-3.04-1.216-6.383.304-7.447 3.344-1.216 3.039.304 6.383 3.343 7.447 3.04 1.215 6.383-.304 7.447-3.344 1.216-3.039-.304-6.383-3.343-7.447m10.79-46.048-11.246 37.69 6.839 2.583 14.741-34.802z" class="E"/><path d="m654.207 385.258-60.639 11.855c1.368-.456 41.034-12.918 58.511-22.949zm-89.058-147.416a19.4 19.4 0 0 1-10.638 5.775c-.152 0-.456 0-.608.152l-10.031-4.559z" class="B C"/><path d="m554.511 243.617 18.997-11.854 4.407 3.951-12.918 16.87zm-.608.152-12.462-9.119-2.888 3.04 8.511 12.766z" class="E"/><g class="B"><path d="m553.903 243.769-12.462-9.119-2.888 3.04 8.511 12.766z" class="C"/><path d="M536.73 390.426v.76h-25.38v-.76a8.2 8.2 0 0 1 1.671-4.864h22.037c1.216 1.52 1.672 3.192 1.672 4.864" opacity=".22"/></g><path d="m571.988 454.407-.304-1.52c.152.456.152.912.304 1.52m-23.101-3.647 19.453-2.128s.76-5.015-2.279-6.839-14.134 4.255-17.174 8.967m-42.553-56.231 17.781-8.055s-.911-5.015-4.407-5.775-11.854 8.359-13.374 13.83M233.69 544.377l-19.757-2.28s-.76-5.167 2.432-6.991 14.133 4.559 17.325 9.271m29.179 0-19.757-2.28s-.759-5.167 2.432-6.991 14.134 4.559 17.325 9.271" class="D"/><path d="M568.644 196.353c-4.407 4.407-17.477 15.805-29.331 10.638-1.824-.76-3.647-1.824-5.167-3.192-.152-.152-.304-.152-.456-.304a3.5 3.5 0 0 1-1.064-1.063l-.152-.152c-.912-.912-1.52-2.128-2.128-3.192 2.888 1.672 6.079 2.888 9.423 3.648 16.261 3.343 29.635-8.967 31.763-10.943l.152-.152c-.912 1.672-1.824 3.192-3.04 4.712M219.86 293.769c6.079.912 23.101 1.976 29.332-9.119a24 24 0 0 0 2.127-5.471c0-.152.152-.304.152-.456.152-.456.152-1.063.152-1.519v-.152c.152-1.216 0-2.584-.304-3.8-1.216 3.04-3.039 5.927-5.167 8.359-10.79 12.31-28.419 10.486-31.307 10.334h-.152c1.52.608 3.344 1.368 5.167 1.824" class="B" opacity=".5"/><path d="M501.775 256.991c-4.103-.912-9.726-2.584-15.653-5.623-5.32-2.736-9.271-5.775-12.31-8.359 2.431-.304 9.422-.76 16.717 3.04 6.687 3.495 10.03 8.662 11.246 10.942" class="D"/><defs><path id="B" d="m627.915 358.207-.912-5.016-2.888-14.893-3.647.76-16.413 3.191-3.04.608 2.888 14.894.912 5.015.303 1.976 23.101-4.56zm-8.359-15.958 2.128-.456 2.279 12.006.76 3.952-17.325 3.343-.76-3.951-2.279-12.006h.152z"/><path id="C" d="m654.207 385.258-6.079-31.003-.912-5.015-9.879 1.824.912 4.863 2.736 13.982c.304 1.368-.608 2.584-1.824 2.887l-3.951.76c-1.368.304-2.584-.608-2.888-1.823l-2.735-13.982-.912-4.863-3.648.608-20.212 3.951-3.344.608.912 4.863 2.735 13.982c.304 1.368-.607 2.583-1.823 2.887l-3.952.76c-1.367.304-2.583-.608-2.887-1.823l-2.736-13.982-.912-4.863-11.854 2.279 6.991 36.018 5.623-1.063z"/></defs></svg>